<svg width="15" height="15" viewBox="0 0 15 15" fill="none" xmlns="http://www.w3.org/2000/svg">
<g clipPath="url(#clip0_1_2)">
<path d="M7.70697 0.00301068C7.60779 0.00018349 7.51 0.0269328 7.42606 0.0798539C7.34213 0.132775 7.27583 0.209474 7.23562 0.30019C7.19541 0.390905 7.1831 0.491533 7.20026 0.589266C7.21742 0.686999 7.26327 0.777417 7.33197 0.849011C8.21973 1.77457 8.78755 2.96022 8.95218 4.23209C9.11681 5.50396 8.86958 6.79512 8.24674 7.9162C7.62391 9.03729 6.65824 9.9293 5.49137 10.4614C4.32449 10.9936 3.01782 11.1378 1.76297 10.873C1.66603 10.8529 1.56529 10.862 1.47352 10.8991C1.38175 10.9363 1.30308 10.9999 1.24749 11.0818C1.1919 11.1638 1.16189 11.2604 1.16126 11.3594C1.16064 11.4584 1.18942 11.5554 1.24397 11.638C1.9548 12.7126 2.93046 13.5859 4.0769 14.1738C5.22333 14.7617 6.50189 15.0444 7.78932 14.9945C9.07674 14.9447 10.3296 14.564 11.4272 13.8893C12.5247 13.2145 13.43 12.2684 14.0556 11.1421C14.6812 10.0158 15.0062 8.74731 14.9991 7.45894C14.992 6.17057 14.6532 4.90574 14.0152 3.78639C13.3772 2.66704 12.4617 1.73091 11.3568 1.06824C10.2519 0.405565 8.99487 0.0387017 7.70697 0.00301068Z" fill="#FFC700"/>
</g>
<defs>
<clipPath id="clip0_1_2">
<rect width="15" height="15" fill="white"/>
</clipPath>
</defs>
</svg>
